<svg xmlns="http://www.w3.org/2000/svg" viewBox="0 0 1440 780" font-family="-apple-system, Helvetica, Arial, sans-serif">
  <defs>
    <marker id="arr-blue" viewBox="0 0 10 10" refX="9" refY="5" markerWidth="8" markerHeight="8" orient="auto-start-reverse"><path d="M0,0 L10,5 L0,10 z" fill="#2563eb"/></marker>
    <marker id="arr-orange" viewBox="0 0 10 10" refX="9" refY="5" markerWidth="8" markerHeight="8" orient="auto-start-reverse"><path d="M0,0 L10,5 L0,10 z" fill="#ea580c"/></marker>
    <marker id="arr-green" viewBox="0 0 10 10" refX="9" refY="5" markerWidth="8" markerHeight="8" orient="auto-start-reverse"><path d="M0,0 L10,5 L0,10 z" fill="#059669"/></marker>
    <marker id="arr-purple" viewBox="0 0 10 10" refX="9" refY="5" markerWidth="8" markerHeight="8" orient="auto-start-reverse"><path d="M0,0 L10,5 L0,10 z" fill="#7c3aed"/></marker>
    <marker id="arr-gray" viewBox="0 0 10 10" refX="9" refY="5" markerWidth="8" markerHeight="8" orient="auto-start-reverse"><path d="M0,0 L10,5 L0,10 z" fill="#6b7280"/></marker>
    <filter id="shadow" x="-10%" y="-10%" width="120%" height="120%"><feDropShadow dx="0" dy="2" stdDeviation="2" flood-opacity="0.12"/></filter>
  </defs>
  <text x="720" y="32" text-anchor="middle" font-size="20" font-weight="700" fill="#0f172a">CodeNook — internal view (development plugin, feature profile)</text>
  <text x="720" y="54" text-anchor="middle" font-size="13" fill="#64748b">Conductor dispatches sub-agents along the 11-phase pipeline; HITL gates pause for Human; memory layer learns from every phase</text>
  <g filter="url(#shadow)">
    <rect x="40" y="80" width="170" height="90" rx="12" fill="#fff7ed" stroke="#fb923c" stroke-width="2"/>
    <circle cx="75" cy="115" r="14" fill="#fed7aa" stroke="#9a3412" stroke-width="1.5"/>
    <line x1="75" y1="129" x2="75" y2="155" stroke="#9a3412" stroke-width="2"/>
    <text x="125" y="115" font-size="14" font-weight="700" fill="#0f172a">Human</text>
    <text x="125" y="135" font-size="11" fill="#7c2d12">approves at gates</text>
    <text x="125" y="151" font-size="11" fill="#7c2d12">via hitl-adapter</text>
  </g>
  <rect x="240" y="85" width="1170" height="80" rx="10" fill="#fff7ed" stroke="#fb923c" stroke-dasharray="4,3"/>
  <text x="260" y="105" font-size="12" font-weight="700" fill="#9a3412">🚦 HITL gates  (10 of 11 phases gated; only `implement` is gate-less)</text>
    <rect x="220" y="125" width="80" height="28" rx="6" fill="#fed7aa" stroke="#fb923c"/>
    <text x="260" y="143" text-anchor="middle" font-size="10.5" font-weight="600" fill="#7c2d12">reqs 🚦</text>
    <rect x="325" y="125" width="80" height="28" rx="6" fill="#fed7aa" stroke="#fb923c"/>
    <text x="365" y="143" text-anchor="middle" font-size="10.5" font-weight="600" fill="#7c2d12">design 🚦</text>
    <rect x="430" y="125" width="80" height="28" rx="6" fill="#fed7aa" stroke="#fb923c"/>
    <text x="470" y="143" text-anchor="middle" font-size="10.5" font-weight="600" fill="#7c2d12">plan 🚦</text>
    <rect x="535" y="125" width="80" height="28" rx="6" fill="#f1f5f9" stroke="#cbd5e1" stroke-dasharray="2,2"/>
    <text x="575" y="143" text-anchor="middle" font-size="10.5" fill="#64748b">no gate</text>
    <rect x="640" y="125" width="80" height="28" rx="6" fill="#fed7aa" stroke="#fb923c"/>
    <text x="680" y="143" text-anchor="middle" font-size="10.5" font-weight="600" fill="#7c2d12">build 🚦</text>
    <rect x="745" y="125" width="80" height="28" rx="6" fill="#fed7aa" stroke="#fb923c"/>
    <text x="785" y="143" text-anchor="middle" font-size="10.5" font-weight="600" fill="#7c2d12">review 🚦</text>
    <rect x="850" y="125" width="80" height="28" rx="6" fill="#fed7aa" stroke="#fb923c"/>
    <text x="890" y="143" text-anchor="middle" font-size="10.5" font-weight="600" fill="#7c2d12">submit 🚦</text>
    <rect x="955" y="125" width="80" height="28" rx="6" fill="#fed7aa" stroke="#fb923c"/>
    <text x="995" y="143" text-anchor="middle" font-size="10.5" font-weight="600" fill="#7c2d12">test-plan 🚦</text>
    <rect x="1060" y="125" width="80" height="28" rx="6" fill="#fed7aa" stroke="#fb923c"/>
    <text x="1100" y="143" text-anchor="middle" font-size="10.5" font-weight="600" fill="#7c2d12">test 🚦</text>
    <rect x="1165" y="125" width="80" height="28" rx="6" fill="#fed7aa" stroke="#fb923c"/>
    <text x="1205" y="143" text-anchor="middle" font-size="10.5" font-weight="600" fill="#7c2d12">accept 🚦</text>
    <rect x="1270" y="125" width="80" height="28" rx="6" fill="#fed7aa" stroke="#fb923c"/>
    <text x="1310" y="143" text-anchor="middle" font-size="10.5" font-weight="600" fill="#7c2d12">ship 🚦</text>
  <line x1="212" y1="125" x2="237" y2="125" stroke="#ea580c" stroke-width="2" marker-end="url(#arr-orange)"/>
  <g filter="url(#shadow)">
    <polygon points="600,200 660,180 760,180 820,200 820,260 760,280 660,280 600,260" fill="#dbeafe" stroke="#2563eb" stroke-width="2.5"/>
    <text x="710" y="218" text-anchor="middle" font-size="15" font-weight="700" fill="#0f172a">🎬 Conductor</text>
    <text x="710" y="237" text-anchor="middle" font-size="11" fill="#475569">orchestrator-tick + router-agent</text>
    <text x="710" y="254" text-anchor="middle" font-size="11" fill="#475569">reads state.json, picks profile,</text>
    <text x="710" y="270" text-anchor="middle" font-size="11" fill="#475569">dispatches the next sub-agent</text>
  </g>
  <line x1="710" y1="180" x2="710" y2="160" stroke="#ea580c" stroke-width="1.5" stroke-dasharray="4,2" marker-end="url(#arr-orange)" marker-start="url(#arr-orange)"/>
  <rect x="676" y="162" width="68" height="14" fill="#ffffff" opacity="0.95"/>
  <text x="710" y="173" text-anchor="middle" font-size="10.5" fill="#9a3412">HITL verdict</text>
    <g filter="url(#shadow)">
      <rect x="214" y="320" width="92" height="98" rx="8" fill="#eff6ff" stroke="#2563eb" stroke-width="1.5"/>
      <text x="260" y="344" text-anchor="middle" font-size="20">🤔</text>
      <text x="260" y="370" text-anchor="middle" font-size="12" font-weight="700" fill="#0f172a">clarify</text>
      <text x="260" y="388" text-anchor="middle" font-size="9.5" fill="#475569">clarifier</text>
      <text x="260" y="406" text-anchor="middle" font-size="9" fill="#94a3b8">phase 1</text>
    </g>
    <g filter="url(#shadow)">
      <rect x="319" y="320" width="92" height="98" rx="8" fill="#eff6ff" stroke="#2563eb" stroke-width="1.5"/>
      <text x="365" y="344" text-anchor="middle" font-size="20">🎨</text>
      <text x="365" y="370" text-anchor="middle" font-size="12" font-weight="700" fill="#0f172a">design</text>
      <text x="365" y="388" text-anchor="middle" font-size="9.5" fill="#475569">designer</text>
      <text x="365" y="406" text-anchor="middle" font-size="9" fill="#94a3b8">phase 2</text>
    </g>
    <g filter="url(#shadow)">
      <rect x="424" y="320" width="92" height="98" rx="8" fill="#eff6ff" stroke="#2563eb" stroke-width="1.5"/>
      <text x="470" y="344" text-anchor="middle" font-size="20">📋</text>
      <text x="470" y="370" text-anchor="middle" font-size="12" font-weight="700" fill="#0f172a">plan</text>
      <text x="470" y="388" text-anchor="middle" font-size="9.5" fill="#475569">planner</text>
      <text x="470" y="406" text-anchor="middle" font-size="9" fill="#94a3b8">phase 3</text>
    </g>
    <g filter="url(#shadow)">
      <rect x="529" y="320" width="92" height="98" rx="8" fill="#fef3c7" stroke="#a16207" stroke-width="1.5"/>
      <text x="575" y="344" text-anchor="middle" font-size="20">⚙️</text>
      <text x="575" y="370" text-anchor="middle" font-size="12" font-weight="700" fill="#0f172a">implement</text>
      <text x="575" y="388" text-anchor="middle" font-size="9.5" fill="#475569">implementer</text>
      <text x="575" y="406" text-anchor="middle" font-size="9" fill="#94a3b8">phase 4</text>
    </g>
    <g filter="url(#shadow)">
      <rect x="634" y="320" width="92" height="98" rx="8" fill="#eff6ff" stroke="#2563eb" stroke-width="1.5"/>
      <text x="680" y="344" text-anchor="middle" font-size="20">🔨</text>
      <text x="680" y="370" text-anchor="middle" font-size="12" font-weight="700" fill="#0f172a">build</text>
      <text x="680" y="388" text-anchor="middle" font-size="9.5" fill="#475569">builder</text>
      <text x="680" y="406" text-anchor="middle" font-size="9" fill="#94a3b8">phase 5</text>
    </g>
    <g filter="url(#shadow)">
      <rect x="739" y="320" width="92" height="98" rx="8" fill="#eff6ff" stroke="#2563eb" stroke-width="1.5"/>
      <text x="785" y="344" text-anchor="middle" font-size="20">🔍</text>
      <text x="785" y="370" text-anchor="middle" font-size="12" font-weight="700" fill="#0f172a">review</text>
      <text x="785" y="388" text-anchor="middle" font-size="9.5" fill="#475569">reviewer</text>
      <text x="785" y="406" text-anchor="middle" font-size="9" fill="#94a3b8">phase 6</text>
    </g>
    <g filter="url(#shadow)">
      <rect x="844" y="320" width="92" height="98" rx="8" fill="#eff6ff" stroke="#2563eb" stroke-width="1.5"/>
      <text x="890" y="344" text-anchor="middle" font-size="20">📤</text>
      <text x="890" y="370" text-anchor="middle" font-size="12" font-weight="700" fill="#0f172a">submit</text>
      <text x="890" y="388" text-anchor="middle" font-size="9.5" fill="#475569">submitter</text>
      <text x="890" y="406" text-anchor="middle" font-size="9" fill="#94a3b8">phase 7</text>
    </g>
    <g filter="url(#shadow)">
      <rect x="949" y="320" width="92" height="98" rx="8" fill="#eff6ff" stroke="#2563eb" stroke-width="1.5"/>
      <text x="995" y="344" text-anchor="middle" font-size="20">🧪</text>
      <text x="995" y="370" text-anchor="middle" font-size="12" font-weight="700" fill="#0f172a">test-plan</text>
      <text x="995" y="388" text-anchor="middle" font-size="9.5" fill="#475569">test-planner</text>
      <text x="995" y="406" text-anchor="middle" font-size="9" fill="#94a3b8">phase 8</text>
    </g>
    <g filter="url(#shadow)">
      <rect x="1054" y="320" width="92" height="98" rx="8" fill="#eff6ff" stroke="#2563eb" stroke-width="1.5"/>
      <text x="1100" y="344" text-anchor="middle" font-size="20">✅</text>
      <text x="1100" y="370" text-anchor="middle" font-size="12" font-weight="700" fill="#0f172a">test</text>
      <text x="1100" y="388" text-anchor="middle" font-size="9.5" fill="#475569">tester</text>
      <text x="1100" y="406" text-anchor="middle" font-size="9" fill="#94a3b8">phase 9</text>
    </g>
    <g filter="url(#shadow)">
      <rect x="1159" y="320" width="92" height="98" rx="8" fill="#eff6ff" stroke="#2563eb" stroke-width="1.5"/>
      <text x="1205" y="344" text-anchor="middle" font-size="20">🎯</text>
      <text x="1205" y="370" text-anchor="middle" font-size="12" font-weight="700" fill="#0f172a">accept</text>
      <text x="1205" y="388" text-anchor="middle" font-size="9.5" fill="#475569">acceptor</text>
      <text x="1205" y="406" text-anchor="middle" font-size="9" fill="#94a3b8">phase 10</text>
    </g>
    <g filter="url(#shadow)">
      <rect x="1264" y="320" width="92" height="98" rx="8" fill="#eff6ff" stroke="#2563eb" stroke-width="1.5"/>
      <text x="1310" y="344" text-anchor="middle" font-size="20">🚀</text>
      <text x="1310" y="370" text-anchor="middle" font-size="12" font-weight="700" fill="#0f172a">ship</text>
      <text x="1310" y="388" text-anchor="middle" font-size="9.5" fill="#475569">reviewer*</text>
      <text x="1310" y="406" text-anchor="middle" font-size="9" fill="#94a3b8">phase 11</text>
    </g>
    <path d="M 710,278 Q 485.0,310 260,318" stroke="#7c3aed" stroke-width="0.9" stroke-dasharray="3,2" fill="none" opacity="0.55" marker-end="url(#arr-purple)"/>
    <path d="M 710,278 Q 537.5,308 365,318" stroke="#7c3aed" stroke-width="0.9" stroke-dasharray="3,2" fill="none" opacity="0.55" marker-end="url(#arr-purple)"/>
    <path d="M 710,278 Q 590.0,306 470,318" stroke="#7c3aed" stroke-width="0.9" stroke-dasharray="3,2" fill="none" opacity="0.55" marker-end="url(#arr-purple)"/>
    <path d="M 710,278 Q 642.5,304 575,318" stroke="#7c3aed" stroke-width="0.9" stroke-dasharray="3,2" fill="none" opacity="0.55" marker-end="url(#arr-purple)"/>
    <path d="M 710,278 Q 695.0,302 680,318" stroke="#7c3aed" stroke-width="0.9" stroke-dasharray="3,2" fill="none" opacity="0.55" marker-end="url(#arr-purple)"/>
    <path d="M 710,278 Q 747.5,300 785,318" stroke="#7c3aed" stroke-width="0.9" stroke-dasharray="3,2" fill="none" opacity="0.55" marker-end="url(#arr-purple)"/>
    <path d="M 710,278 Q 800.0,302 890,318" stroke="#7c3aed" stroke-width="0.9" stroke-dasharray="3,2" fill="none" opacity="0.55" marker-end="url(#arr-purple)"/>
    <path d="M 710,278 Q 852.5,304 995,318" stroke="#7c3aed" stroke-width="0.9" stroke-dasharray="3,2" fill="none" opacity="0.55" marker-end="url(#arr-purple)"/>
    <path d="M 710,278 Q 905.0,306 1100,318" stroke="#7c3aed" stroke-width="0.9" stroke-dasharray="3,2" fill="none" opacity="0.55" marker-end="url(#arr-purple)"/>
    <path d="M 710,278 Q 957.5,308 1205,318" stroke="#7c3aed" stroke-width="0.9" stroke-dasharray="3,2" fill="none" opacity="0.55" marker-end="url(#arr-purple)"/>
    <path d="M 710,278 Q 1010.0,310 1310,318" stroke="#7c3aed" stroke-width="0.9" stroke-dasharray="3,2" fill="none" opacity="0.55" marker-end="url(#arr-purple)"/>
    <line x1="306" y1="370" x2="319" y2="370" stroke="#2563eb" stroke-width="1.5" marker-end="url(#arr-blue)"/>
    <line x1="411" y1="370" x2="424" y2="370" stroke="#2563eb" stroke-width="1.5" marker-end="url(#arr-blue)"/>
    <line x1="516" y1="370" x2="529" y2="370" stroke="#2563eb" stroke-width="1.5" marker-end="url(#arr-blue)"/>
    <line x1="621" y1="370" x2="634" y2="370" stroke="#2563eb" stroke-width="1.5" marker-end="url(#arr-blue)"/>
    <line x1="726" y1="370" x2="739" y2="370" stroke="#2563eb" stroke-width="1.5" marker-end="url(#arr-blue)"/>
    <line x1="831" y1="370" x2="844" y2="370" stroke="#2563eb" stroke-width="1.5" marker-end="url(#arr-blue)"/>
    <line x1="936" y1="370" x2="949" y2="370" stroke="#2563eb" stroke-width="1.5" marker-end="url(#arr-blue)"/>
    <line x1="1041" y1="370" x2="1054" y2="370" stroke="#2563eb" stroke-width="1.5" marker-end="url(#arr-blue)"/>
    <line x1="1146" y1="370" x2="1159" y2="370" stroke="#2563eb" stroke-width="1.5" marker-end="url(#arr-blue)"/>
    <line x1="1251" y1="370" x2="1264" y2="370" stroke="#2563eb" stroke-width="1.5" marker-end="url(#arr-blue)"/>
  <rect x="40" y="480" width="1370" height="220" rx="14" fill="#f0fdf4" stroke="#059669" stroke-width="1.5" stroke-dasharray="6,4"/>
  <text x="60" y="504" font-size="14" font-weight="700" fill="#065f46">🧠 Memory Layer  <tspan font-size="11" font-weight="400" fill="#047857">— extracted post-phase, deduped via fuzzy-merge, indexed in index.yaml</tspan></text>
  <g filter="url(#shadow)">
    <rect x="80" y="530" width="200" height="60" rx="10" fill="#ffffff" stroke="#059669"/>
    <text x="100" y="554" font-size="13" font-weight="700" fill="#0f172a">📚 knowledge-extractor</text>
    <text x="100" y="574" font-size="11" fill="#64748b">coarse-grained per task (D)</text>
  </g>
  <g filter="url(#shadow)">
    <rect x="300" y="530" width="200" height="60" rx="10" fill="#ffffff" stroke="#059669"/>
    <text x="320" y="554" font-size="13" font-weight="700" fill="#0f172a">🛠 skill-extractor</text>
    <text x="320" y="574" font-size="11" fill="#64748b">PER_TASK_CAP=1</text>
  </g>
  <g filter="url(#shadow)">
    <rect x="520" y="530" width="200" height="60" rx="10" fill="#ffffff" stroke="#059669"/>
    <text x="540" y="554" font-size="13" font-weight="700" fill="#0f172a">⚙️ config-extractor</text>
    <text x="540" y="574" font-size="11" fill="#64748b">key-based upsert</text>
  </g>
  <g filter="url(#shadow)">
    <rect x="740" y="530" width="200" height="60" rx="10" fill="#ffffff" stroke="#7c3aed"/>
    <text x="760" y="554" font-size="13" font-weight="700" fill="#0f172a">🔀 memory_layer</text>
    <text x="760" y="574" font-size="11" fill="#64748b">fuzzy-merge + flock (E)</text>
  </g>
  <g filter="url(#shadow)">
    <rect x="960" y="530" width="200" height="60" rx="10" fill="#ffffff" stroke="#dc2626"/>
    <text x="980" y="554" font-size="13" font-weight="700" fill="#0f172a">🧹 memory-gc</text>
    <text x="980" y="574" font-size="11" fill="#64748b">retention &amp; pruning</text>
  </g>
  <g filter="url(#shadow)">
    <rect x="1180" y="530" width="200" height="60" rx="10" fill="#ffffff" stroke="#0891b2"/>
    <text x="1200" y="554" font-size="13" font-weight="700" fill="#0f172a">📇 index.yaml exporter</text>
    <text x="1200" y="574" font-size="11" fill="#64748b">human-readable inventory</text>
  </g>
    <g filter="url(#shadow)">
      <ellipse cx="220.0" cy="610" rx="100.0" ry="10" fill="#ccfbf1" stroke="#0f766e"/>
      <rect x="120" y="610" width="200" height="50" fill="#ccfbf1" stroke="#0f766e"/>
      <ellipse cx="220.0" cy="660" rx="100.0" ry="10" fill="#ccfbf1" stroke="#0f766e"/>
      <line x1="120" y1="610" x2="120" y2="660" stroke="#0f766e"/>
      <line x1="320" y1="610" x2="320" y2="660" stroke="#0f766e"/>
      <text x="220.0" y="633.0" text-anchor="middle" font-size="13" font-weight="700" fill="#0f172a">knowledge/</text>
      <text x="220.0" y="650.0" text-anchor="middle" font-size="10.5" fill="#475569">by_topic/*.md</text>
    </g>
    <g filter="url(#shadow)">
      <ellipse cx="470.0" cy="610" rx="100.0" ry="10" fill="#ccfbf1" stroke="#0f766e"/>
      <rect x="370" y="610" width="200" height="50" fill="#ccfbf1" stroke="#0f766e"/>
      <ellipse cx="470.0" cy="660" rx="100.0" ry="10" fill="#ccfbf1" stroke="#0f766e"/>
      <line x1="370" y1="610" x2="370" y2="660" stroke="#0f766e"/>
      <line x1="570" y1="610" x2="570" y2="660" stroke="#0f766e"/>
      <text x="470.0" y="633.0" text-anchor="middle" font-size="13" font-weight="700" fill="#0f172a">skills/</text>
      <text x="470.0" y="650.0" text-anchor="middle" font-size="10.5" fill="#475569">*.md scripts</text>
    </g>
    <g filter="url(#shadow)">
      <ellipse cx="720.0" cy="610" rx="100.0" ry="10" fill="#ccfbf1" stroke="#0f766e"/>
      <rect x="620" y="610" width="200" height="50" fill="#ccfbf1" stroke="#0f766e"/>
      <ellipse cx="720.0" cy="660" rx="100.0" ry="10" fill="#ccfbf1" stroke="#0f766e"/>
      <line x1="620" y1="610" x2="620" y2="660" stroke="#0f766e"/>
      <line x1="820" y1="610" x2="820" y2="660" stroke="#0f766e"/>
      <text x="720.0" y="633.0" text-anchor="middle" font-size="13" font-weight="700" fill="#0f172a">configs/</text>
      <text x="720.0" y="650.0" text-anchor="middle" font-size="10.5" fill="#475569">*.yaml</text>
    </g>
    <g filter="url(#shadow)">
      <ellipse cx="970.0" cy="610" rx="100.0" ry="10" fill="#fef3c7" stroke="#0f766e"/>
      <rect x="870" y="610" width="200" height="50" fill="#fef3c7" stroke="#0f766e"/>
      <ellipse cx="970.0" cy="660" rx="100.0" ry="10" fill="#fef3c7" stroke="#0f766e"/>
      <line x1="870" y1="610" x2="870" y2="660" stroke="#0f766e"/>
      <line x1="1070" y1="610" x2="1070" y2="660" stroke="#0f766e"/>
      <text x="970.0" y="633.0" text-anchor="middle" font-size="13" font-weight="700" fill="#0f172a">tasks/T-NNN/</text>
      <text x="970.0" y="650.0" text-anchor="middle" font-size="10.5" fill="#475569">state · outputs · audit</text>
    </g>
    <g filter="url(#shadow)">
      <ellipse cx="1220.0" cy="610" rx="100.0" ry="10" fill="#dbeafe" stroke="#0f766e"/>
      <rect x="1120" y="610" width="200" height="50" fill="#dbeafe" stroke="#0f766e"/>
      <ellipse cx="1220.0" cy="660" rx="100.0" ry="10" fill="#dbeafe" stroke="#0f766e"/>
      <line x1="1120" y1="610" x2="1120" y2="660" stroke="#0f766e"/>
      <line x1="1320" y1="610" x2="1320" y2="660" stroke="#0f766e"/>
      <text x="1220.0" y="633.0" text-anchor="middle" font-size="13" font-weight="700" fill="#0f172a">index.yaml</text>
      <text x="1220.0" y="650.0" text-anchor="middle" font-size="10.5" fill="#475569">global inventory</text>
    </g>
    <line x1="260" y1="418" x2="260" y2="528" stroke="#059669" stroke-width="1" stroke-dasharray="2,3" opacity="0.4" marker-end="url(#arr-green)"/>
    <line x1="365" y1="418" x2="365" y2="528" stroke="#059669" stroke-width="1" stroke-dasharray="2,3" opacity="0.4" marker-end="url(#arr-green)"/>
    <line x1="470" y1="418" x2="470" y2="528" stroke="#059669" stroke-width="1" stroke-dasharray="2,3" opacity="0.4" marker-end="url(#arr-green)"/>
    <line x1="575" y1="418" x2="575" y2="528" stroke="#059669" stroke-width="1" stroke-dasharray="2,3" opacity="0.4" marker-end="url(#arr-green)"/>
    <line x1="680" y1="418" x2="680" y2="528" stroke="#059669" stroke-width="1" stroke-dasharray="2,3" opacity="0.4" marker-end="url(#arr-green)"/>
    <line x1="785" y1="418" x2="785" y2="528" stroke="#059669" stroke-width="1" stroke-dasharray="2,3" opacity="0.4" marker-end="url(#arr-green)"/>
    <line x1="890" y1="418" x2="890" y2="528" stroke="#059669" stroke-width="1" stroke-dasharray="2,3" opacity="0.4" marker-end="url(#arr-green)"/>
    <line x1="995" y1="418" x2="995" y2="528" stroke="#059669" stroke-width="1" stroke-dasharray="2,3" opacity="0.4" marker-end="url(#arr-green)"/>
    <line x1="1100" y1="418" x2="1100" y2="528" stroke="#059669" stroke-width="1" stroke-dasharray="2,3" opacity="0.4" marker-end="url(#arr-green)"/>
    <line x1="1205" y1="418" x2="1205" y2="528" stroke="#059669" stroke-width="1" stroke-dasharray="2,3" opacity="0.4" marker-end="url(#arr-green)"/>
    <line x1="1310" y1="418" x2="1310" y2="528" stroke="#059669" stroke-width="1" stroke-dasharray="2,3" opacity="0.4" marker-end="url(#arr-green)"/>
  <text x="1380" y="455" text-anchor="end" font-size="10.5" fill="#047857" font-style="italic">extractor-batch fans out per phase</text>
    <line x1="180" y1="590" x2="840" y2="590" stroke="#7c3aed" stroke-width="0.8" stroke-dasharray="3,2" opacity="0.5"/>
    <line x1="400" y1="590" x2="840" y2="590" stroke="#7c3aed" stroke-width="0.8" stroke-dasharray="3,2" opacity="0.5"/>
    <line x1="620" y1="590" x2="840" y2="590" stroke="#7c3aed" stroke-width="0.8" stroke-dasharray="3,2" opacity="0.5"/>
    <line x1="840" y1="590" x2="840" y2="608" stroke="#7c3aed" stroke-width="1.2" marker-end="url(#arr-purple)"/>
    <line x1="940" y1="560" x2="1180" y2="560" stroke="#0891b2" stroke-width="1.2" marker-end="url(#arr-purple)"/>
    <rect x="1010" y="545" width="80" height="14" fill="#f0fdf4" opacity="0.95"/>
    <text x="1050" y="556" text-anchor="middle" font-size="10" fill="#155e75">on each write</text>
    <line x1="1220" y1="635" x2="1220" y2="370" stroke="#0891b2" stroke-width="1" stroke-dasharray="3,2" marker-end="url(#arr-gray)"/>
    <rect x="1170" y="580" width="106" height="14" fill="#f0fdf4" opacity="0.95"/>
    <text x="1223" y="591" text-anchor="middle" font-size="10.5" fill="#155e75">bootloader read</text>
  <g transform="translate(40, 745)">
    <rect x="0" y="0" width="1370" height="28" rx="8" fill="#f1f5f9" stroke="#cbd5e1"/>
    <line x1="20" y1="14" x2="56" y2="14" stroke="#2563eb" stroke-width="1.5"/><text x="64" y="18" font-size="11" fill="#334155">phase sequence</text>
    <line x1="180" y1="14" x2="216" y2="14" stroke="#7c3aed" stroke-width="1" stroke-dasharray="3,2"/><text x="224" y="18" font-size="11" fill="#334155">conductor dispatch / merge</text>
    <line x1="420" y1="14" x2="456" y2="14" stroke="#059669" stroke-width="1" stroke-dasharray="2,3"/><text x="464" y="18" font-size="11" fill="#334155">phase output → memory write</text>
    <line x1="680" y1="14" x2="716" y2="14" stroke="#ea580c" stroke-width="1.5" stroke-dasharray="4,2"/><text x="724" y="18" font-size="11" fill="#334155">HITL gate (Human approves)</text>
    <line x1="950" y1="14" x2="986" y2="14" stroke="#0891b2" stroke-width="1" stroke-dasharray="3,2"/><text x="994" y="18" font-size="11" fill="#334155">memory read (bootloader / role)</text>
  </g>
</svg>